<svg width="17" height="18" viewBox="0 0 17 18" fill="none" xmlns="http://www.w3.org/2000/svg">
<path d="M11.3363 18C9.93278 18 9.51847 18 8.19278 18C8.19278 17.8292 8.19278 17.6627 8.19278 17.4962C8.19278 14.8488 8.16055 12.2004 8.20497 9.5538C8.23197 7.96187 7.84699 6.55532 6.71728 5.36931C7.91754 5.93142 8.90701 6.75356 9.78325 7.71643C10.6699 8.69218 11.3432 9.80267 11.9233 10.9912C11.9007 10.8763 11.8885 10.7578 11.8537 10.6454C10.7266 6.96896 8.27465 4.72739 4.42999 3.9885C4.25404 3.95503 4.04326 3.84175 3.94657 3.70015C2.93097 2.21722 1.66887 0.998602 0.0775204 0.122401C0.055745 0.110386 0.0435508 0.0812083 0 0.0271429C2.52246 0.0159866 5.05538 -0.244042 7.33744 1.10673C10.2667 2.84026 12.0035 5.32984 12.0732 8.76255C12.1043 11.7692 12.0921 15.0376 12.0921 18C12.0921 18 11.8944 18 11.3363 18Z" fill="white"/>
<path d="M5.17676 0C9.07895 0 12.976 0 16.9422 0C16.5987 0.893358 16.2761 1.73469 15.9526 2.57601C15.9102 2.68537 15.8661 2.79384 15.8237 2.90319C15.3903 4.01438 15.3903 4.0135 14.1974 4.01438C13.3479 4.01438 12.4976 4.02585 11.6481 4.00556C11.4872 4.00203 11.2701 3.92355 11.1775 3.80184C9.68794 1.83169 7.81599 0.487687 5.37399 0.0537955C5.30478 0.041449 5.23818 0.0176379 5.17676 0Z" fill="white"/>
</svg>
